<?xml version="1.0" encoding="UTF-8"?>
<svg version="1.1" xmlns="http://www.w3.org/2000/svg" width="2400" height="2400">
<path d="M0 0 C1.05340073 0.00031723 1.05340073 0.00031723 2.12808228 0.00064087 C27.83012428 0.0776707 51.50598176 6.61258766 71.5625 23.375 C72.573125 24.138125 73.58375 24.90125 74.625 25.6875 C75.264375 26.244375 75.90375 26.80125 76.5625 27.375 C76.5625 28.035 76.5625 28.695 76.5625 29.375 C77.2225 29.375 77.8825 29.375 78.5625 29.375 C81.2025 32.675 83.8425 35.975 86.5625 39.375 C86.8925 27.165 87.2225 14.955 87.5625 2.375 C97.4625 2.375 107.3625 2.375 117.5625 2.375 C117.60892885 28.49749116 117.64455605 54.61997228 117.66612434 80.74249649 C117.67640799 92.87342998 117.69041224 105.00433725 117.71337891 117.13525391 C117.73340236 127.71668286 117.74623756 138.29809282 117.75067699 148.87954021 C117.75326929 154.47492626 117.75930068 160.07025799 117.77396011 165.66562653 C117.78768602 170.94822206 117.79169281 176.23074167 117.78871536 181.51335335 C117.78925889 183.43680041 117.7931459 185.36025041 117.80091095 187.28368187 C117.86389404 203.71140651 117.36629751 220.38464141 113.25 236.375 C113.0319873 237.24817871 112.81397461 238.12135742 112.58935547 239.02099609 C107.27019632 259.59784394 95.71841167 277.86921877 77.5625 289.375 C42.58872321 309.7579819 -1.51488199 310.6280772 -40.046875 300.8515625 C-58.81866605 295.81439707 -84.89601073 288.6872339 -96.4375 271.375 C-91.4875 263.785 -86.5375 256.195 -81.4375 248.375 C-77.65066136 250.64710318 -74.23473986 252.96639829 -70.6875 255.5625 C-58.81070417 263.95382686 -45.33409051 269.32053818 -31.4375 273.375 C-30.46554687 273.67148438 -29.49359375 273.96796875 -28.4921875 274.2734375 C-4.59136884 280.71072466 29.22589038 281.89514804 51.5625 269.375 C52.98755859 268.65376953 52.98755859 268.65376953 54.44140625 267.91796875 C68.24774102 260.53961463 76.40833677 248.88282844 81.27832031 234.21972656 C84.27813154 224.07750765 85.73103436 214.04721596 85.66015625 203.5 C85.6587413 202.69006592 85.65732635 201.88013184 85.65586853 201.0456543 C85.65032383 198.48873006 85.63778207 195.93189724 85.625 193.375 C85.61997784 191.62890753 85.61541619 189.88281366 85.61132812 188.13671875 C85.6003726 183.88277791 85.58314694 179.62890439 85.5625 175.375 C84.98024658 176.1081543 84.39799316 176.84130859 83.7980957 177.59667969 C66.97560161 198.51702739 45.43464522 208.46189229 19.5625 213.375 C18.64082031 213.56964844 17.71914063 213.76429688 16.76953125 213.96484375 C-13.88104653 217.88483238 -45.93100814 210.58952881 -70.62109375 191.75 C-81.17321635 182.85167747 -89.65828702 173.40670238 -96.4375 161.375 C-97.28054688 159.91513672 -97.28054688 159.91513672 -98.140625 158.42578125 C-111.74900688 133.23652892 -113.50385099 100.53534848 -105.4375 73.375 C-101.30206441 60.49175544 -95.18625338 48.70463695 -86.4375 38.375 C-85.41849609 37.15490234 -85.41849609 37.15490234 -84.37890625 35.91015625 C-74.6493366 24.65437959 -63.5076171 17.15937713 -50.4375 10.375 C-49.61378906 9.941875 -48.79007813 9.50875 -47.94140625 9.0625 C-41.17846674 5.78969751 -33.74193541 4.01737739 -26.4375 2.375 C-25.25740356 2.10357178 -25.25740356 2.10357178 -24.0534668 1.82666016 C-16.05662058 0.16681119 -8.14480757 -0.0226601 0 0 Z M-58.25 51.75 C-68.60692059 62.53767859 -74.37161692 75.91563251 -77.4375 90.375 C-77.62183594 91.10589844 -77.80617188 91.83679687 -77.99609375 92.58984375 C-81.42889453 114.24990529 -76.87551631 136.15025702 -64.50390625 154.1953125 C-62.87421918 156.31916274 -61.18943129 158.35193649 -59.4375 160.375 C-58.84453125 161.17679688 -58.2515625 161.97859375 -57.640625 162.8046875 C-55.05838776 165.81729761 -52.16598108 168.05247472 -48.9375 170.3125 C-48.01155029 170.96436279 -48.01155029 170.96436279 -47.06689453 171.62939453 C-30.6985361 182.91545537 -11.40916861 188.85554957 8.5625 187.375 C9.81289063 187.28347656 11.06328125 187.19195313 12.3515625 187.09765625 C35.10481235 185.09355168 55.67363528 175.5461871 70.65234375 157.953125 C84.82418088 138.82549207 90.17472472 116.41827957 86.73779297 92.88549805 C85.41551582 84.87442052 83.25092951 77.65135685 79.5625 70.375 C78.80646484 68.88226562 78.80646484 68.88226562 78.03515625 67.359375 C72.34728547 56.92045922 64.64225036 47.78626979 54.5625 41.375 C53.55703125 40.72789063 52.5515625 40.08078125 51.515625 39.4140625 C16.59832083 17.76826517 -28.81855245 23.82015691 -58.25 51.75 Z " fill="#FFFFFF" transform="translate(848.4375,1091.625)"/>
<path d="M0 0 C10.23 0 20.46 0 31 0 C31.33 41.58 31.66 83.16 32 126 C33.98 123.36 35.96 120.72 38 118 C52.56791359 100.81096559 74.2824324 92.56945673 96 89 C100.64186036 88.65361423 105.2531168 88.56527895 109.90405273 88.60888672 C111.93346589 88.62496803 113.96088083 88.60893088 115.99023438 88.58984375 C139.35395836 88.55194539 161.63723553 95.49912376 178.796875 111.80078125 C179.52390625 112.52652344 180.2509375 113.25226563 181 114 C181.62390625 114.61230469 182.2478125 115.22460938 182.890625 115.85546875 C200.46751354 134.42204696 204.18252522 160.37023404 204.11352539 184.87329102 C204.11324282 186.25391132 204.11340262 187.63453176 204.1139679 189.01515198 C204.11425313 192.73765418 204.10840082 196.46012372 204.10139394 200.18261838 C204.09511467 204.08235077 204.094553 207.98208402 204.09336853 211.88182068 C204.09026865 219.25513251 204.08207345 226.6284294 204.07201904 234.00173467 C204.06081608 242.40081416 204.05533694 250.79989439 204.05032361 259.1989795 C204.03988964 276.46599644 204.02156095 293.73299282 204 311 C193.77 311 183.54 311 173 311 C172.97812622 304.84718384 172.97812622 304.84718384 172.95581055 298.57006836 C172.90535175 284.97939742 172.83888438 271.38884367 172.76428509 257.79828548 C172.71946669 249.56272099 172.68002053 241.32719839 172.65356445 233.09155273 C172.63047061 225.9069133 172.59694744 218.72240802 172.55129844 211.53787524 C172.52751841 207.73955987 172.50869065 203.94137611 172.50238609 200.1429882 C172.49626538 196.55517648 172.47601993 192.96770081 172.44572449 189.38001442 C172.43297458 187.46137043 172.43449492 185.54264746 172.4367218 183.6239624 C172.2407469 165.15250145 167.70922739 147.77801255 155.04296875 133.84765625 C142.19636193 121.43006413 124.49511965 116.81413413 107 117 C84.1999632 117.78152836 65.04033621 124.24727064 49 141 C34.62755658 157.69661178 31.90405573 179.25201107 31.79467773 200.42626953 C31.77982834 202.2279937 31.77982834 202.2279937 31.76467896 204.06611633 C31.7386878 207.32780463 31.71674618 210.58948864 31.69667697 213.85121775 C31.67464859 217.27183937 31.64734321 220.692419 31.62062073 224.11300659 C31.57091969 230.57606449 31.52589812 237.03914599 31.48259836 243.5022496 C31.43303157 250.86633528 31.37818622 258.23037877 31.32291877 265.59442353 C31.20944599 280.72957761 31.10322944 295.86477194 31 311 C20.77 311 10.54 311 0 311 C0 208.37 0 105.74 0 0 Z " fill="#FFFFFF" transform="translate(1695,1003)"/>
<path d="M0 0 C1.25296875 0.3403125 2.5059375 0.680625 3.796875 1.03125 C16.63349264 4.90843247 27.81859834 11.28368164 38 20 C38.82113281 20.68835937 39.64226562 21.37671875 40.48828125 22.0859375 C61.76366456 40.48801411 72.09360477 65.65523338 76 93 C76 101.25 76 109.5 76 118 C14.95 118 -46.1 118 -109 118 C-103.53287936 142.60204287 -96.58693712 163.3707442 -75.09765625 178.08984375 C-63.87082321 185.0128215 -52.96429015 189.45600958 -40 192 C-39.0821875 192.19207031 -38.164375 192.38414062 -37.21875 192.58203125 C-13.09617589 195.71445289 11.98689921 191.30997086 32 177 C36.58067958 173.26438092 40.81633637 169.16976441 45 165 C48.83477861 168.81339509 52.63958317 172.65156359 56.375 176.5625 C57.21224609 177.40844727 57.21224609 177.40844727 58.06640625 178.27148438 C59.6484375 179.94140625 59.6484375 179.94140625 62 183 C60.97207733 190.48415185 53.40960658 195.63823913 47.83203125 199.953125 C30.14138463 212.73919235 9.05433486 221.06908115 -12.9609375 221.203125 C-13.70977203 221.20882507 -14.45860657 221.21452515 -15.23013306 221.22039795 C-16.81177381 221.22979745 -18.39343371 221.2363617 -19.97509766 221.24023438 C-22.33403264 221.2498333 -24.69205403 221.28085914 -27.05078125 221.3125 C-40.49863686 221.40712386 -53.94288232 220.10262897 -66.625 215.3125 C-67.31754883 215.05758789 -68.01009766 214.80267578 -68.72363281 214.54003906 C-90.02512794 206.41732771 -110.15607188 191.76692113 -122 172 C-122.3515918 171.41686035 -122.70318359 170.8337207 -123.06542969 170.23291016 C-139.42356747 142.6416266 -143.38768522 109.13668416 -136 78 C-131.74471086 61.35827337 -124.41764586 45.9122304 -113 33 C-112.52304688 32.39285156 -112.04609375 31.78570313 -111.5546875 31.16015625 C-96.81258667 12.5851092 -72.35296225 1.19726182 -49.4296875 -2.58984375 C-33.28934473 -4.41452252 -15.71528357 -4.36927167 0 0 Z M-85.91796875 43.796875 C-99.85051151 58.53975327 -106.18454379 76.29180656 -109 96 C-57.52 96 -6.04 96 47 96 C44.59273857 74.33464717 36.65909448 55.04494887 20 40.375 C13.2658136 35.08519342 5.79552937 31.44726927 -2 28 C-2.81210938 27.6390625 -3.62421875 27.278125 -4.4609375 26.90625 C-31.09898798 16.70010039 -65.44510306 24.46753874 -85.91796875 43.796875 Z " fill="#FFFFFF" transform="translate(1327,1095)"/>
<path d="M0 0 C0.87624023 0.18191895 1.75248047 0.36383789 2.65527344 0.55126953 C34.30824152 7.2367492 64.42369604 21.21223353 90 41 C90.81339844 41.62132812 91.62679688 42.24265625 92.46484375 42.8828125 C139.37055733 79.48853526 169.9995498 132.84463677 178.10766602 191.78759766 C185.51012922 252.06083739 169.63893822 312.73454006 132.6953125 361.01171875 C120.96563538 375.64250818 107.84326728 389.52666086 93 401 C92.46987305 401.41717285 91.93974609 401.8343457 91.39355469 402.26416016 C80.61409508 410.70692321 69.06230732 417.55047325 57 424 C56.28650391 424.38285156 55.57300781 424.76570313 54.83789062 425.16015625 C35.15607015 435.52706266 12.85946177 442.16166841 -9 446 C-10.57261597 446.27710815 -10.57261597 446.27710815 -12.17700195 446.55981445 C-22.68034444 448.18778553 -33.07618514 448.33904217 -43.6862793 448.31567383 C-46.66557791 448.31252318 -49.64387074 448.33602883 -52.62304688 448.36132812 C-65.34217189 448.40339938 -77.49884859 447.33308292 -90 445 C-91.03133057 444.81187744 -92.06266113 444.62375488 -93.12524414 444.42993164 C-95.49582492 443.9635543 -97.83978396 443.44460979 -100.1875 442.875 C-101.03296387 442.67036133 -101.87842773 442.46572266 -102.74951172 442.25488281 C-140.98855366 432.53038856 -176.23551737 413.27879151 -204.36132812 385.60791016 C-205.88704959 384.11083007 -207.43158396 382.63686739 -208.984375 381.16796875 C-216.08940989 374.31381786 -222.09986354 366.8813631 -228 359 C-228.62406738 358.18305664 -228.62406738 358.18305664 -229.26074219 357.34960938 C-249.71225585 330.52422984 -263.83246015 298.156154 -270 265 C-270.14276367 264.23252441 -270.28552734 263.46504883 -270.43261719 262.67431641 C-280.54857962 205.96809553 -269.11425138 143.42964121 -235.98046875 95.74609375 C-235.32691406 94.83988281 -234.67335937 93.93367188 -234 93 C-233.31550781 92.04222656 -232.63101563 91.08445312 -231.92578125 90.09765625 C-218.29471105 71.47423718 -202.60151257 54.70304388 -184 41 C-183.43990234 40.57912109 -182.87980469 40.15824219 -182.30273438 39.72460938 C-155.11606042 19.31108602 -123.47095293 5.23769744 -90 -1 C-89.28424805 -1.14663086 -88.56849609 -1.29326172 -87.83105469 -1.44433594 C-59.73085668 -7.04990954 -27.91043514 -6.08509487 0 0 Z M-186 60 C-187.24136719 61.07507812 -187.24136719 61.07507812 -188.5078125 62.171875 C-199.02099966 71.46566428 -208.34760583 81.16989897 -216.76708984 92.36572266 C-217.85740595 93.81098523 -218.96823568 95.24072226 -220.08203125 96.66796875 C-244.27886244 128.45403009 -259.83398253 170.75534048 -260.23828125 210.75 C-260.24802979 211.5577034 -260.25777832 212.3654068 -260.26782227 213.19758606 C-260.44339063 231.51935224 -260.09285665 249.04951859 -256 267 C-255.81276367 267.8470752 -255.62552734 268.69415039 -255.43261719 269.56689453 C-246.68157203 308.25135063 -227.16991799 343.0280998 -199.59277344 371.36035156 C-198.1761962 372.81861838 -196.77813085 374.29481656 -195.3828125 375.7734375 C-162.54483656 409.90339938 -112.98677522 431.13210298 -66.14599609 434.828125 C-64.03844551 434.99692086 -61.93627995 435.20081291 -59.83203125 435.40625 C-10.74564988 439.67955927 42.1014359 422.89889631 81 393 C81.89976562 392.31164063 82.79953125 391.62328125 83.7265625 390.9140625 C98.42030193 379.4047248 111.60234035 366.53986502 122.78759766 351.609375 C123.8538908 350.19394922 124.94644858 348.79839033 126.04296875 347.40625 C150.16165433 315.97736488 165.84040587 272.9780551 166.23828125 233.34765625 C166.24802979 232.5385379 166.25777832 231.72941956 166.26782227 230.89578247 C166.44338831 212.53486597 166.07615167 194.99175557 162 177 C161.82339844 176.17951172 161.64679688 175.35902344 161.46484375 174.51367188 C152.81221997 135.06411678 132.47861138 101.12263087 105 72 C104.19820312 71.1440625 103.39640625 70.288125 102.5703125 69.40625 C88.65218214 54.98615428 71.58087051 43.45182873 54 34 C53.39349609 33.6714502 52.78699219 33.34290039 52.16210938 33.00439453 C35.37247615 23.99864624 17.50452337 17.46964905 -1 13 C-2.77503906 12.55527344 -2.77503906 12.55527344 -4.5859375 12.1015625 C-68.14663751 -1.82388371 -137.20099611 17.73793432 -186 60 Z " fill="#E38D02" transform="translate(467,978)"/>
<path d="M0 0 C0.69158203 -0.00067474 1.38316406 -0.00134949 2.09570312 -0.00204468 C32.27553668 0.04471798 60.47945586 9.58315928 82.3125 31 C104.92560782 54.12653475 113.63902426 83.89757865 113.41357422 115.68603516 C112.78295255 145.65158948 102.3149289 172.42641845 81.5 194.125 C80.37226867 195.18623773 79.22537059 196.22738792 78.0625 197.25 C76.99515625 198.19552734 76.99515625 198.19552734 75.90625 199.16015625 C55.18450715 216.61889739 29.81915113 224.6434307 3.02758789 224.56567383 C0.76334173 224.56251859 -1.4995864 224.58604891 -3.76367188 224.61132812 C-16.40822993 224.66704352 -28.42068323 222.97216487 -40.375 218.625 C-41.07254395 218.37339111 -41.77008789 218.12178223 -42.48876953 217.86254883 C-54.97100694 213.15118488 -66.10481638 206.26453294 -75.9375 197.25 C-76.86175781 196.40695312 -77.78601562 195.56390625 -78.73828125 194.6953125 C-100.80616063 173.63468072 -111.35536903 144.62235648 -112.29125977 114.50732422 C-112.60384934 82.20640166 -101.89910655 53.3270369 -79.3125 30.125 C-57.68939338 8.69751154 -29.96794189 0.02624241 0 0 Z M-16.9375 28.25 C-18.18466797 28.39888672 -18.18466797 28.39888672 -19.45703125 28.55078125 C-37.12897235 31.35531492 -55.17214172 45.50445271 -65.40625 59.46875 C-79.84931279 80.32119628 -83.45027721 106.40324816 -79.35595703 131.07275391 C-76.36128029 146.65415833 -69.51072775 160.38735423 -58.9375 172.25 C-58.26074219 173.02085937 -57.58398438 173.79171875 -56.88671875 174.5859375 C-43.65268253 188.76353389 -24.08252935 196.76361506 -4.86328125 197.46484375 C18.6733389 198.01622896 40.24973297 192.25434726 57.7578125 175.61328125 C75.42694283 157.49493574 82.44282749 134.93394278 82.3671875 109.91601562 C82.12526585 97.60592549 80.05942606 85.56507326 75.0625 74.25 C74.63066406 73.26515625 74.19882813 72.2803125 73.75390625 71.265625 C70.39540806 64.09354757 66.32937066 58.14850644 61.0625 52.25 C60.38445313 51.47785156 59.70640625 50.70570312 59.0078125 49.91015625 C47.16865459 37.2253442 30.25695984 29.03262773 13.0625 27.25 C12.05960938 27.11722656 11.05671875 26.98445313 10.0234375 26.84765625 C0.81594741 25.83094829 -7.83849231 26.87916871 -16.9375 28.25 Z " fill="#FFFFFF" transform="translate(2067.9375,1091.75)"/>
<path d="M0 0 C1.03687454 -0.00101212 1.03687454 -0.00101212 2.09469604 -0.00204468 C28.79167473 0.03934479 55.43342343 7.0901384 75.1171875 26.25 C76.87405595 28.18645945 78.48095448 30.16820894 80.0625 32.25 C80.72636719 33.10207031 81.39023438 33.95414063 82.07421875 34.83203125 C87.11485922 41.59579833 87.11485922 41.59579833 86.9074707 44.18701172 C85.12393489 48.54149818 80.06941927 50.67250285 76.25 53.125 C75.33412109 53.74375 74.41824219 54.3625 73.47460938 55 C72.58966797 55.57492187 71.70472656 56.14984375 70.79296875 56.7421875 C69.98239014 57.27183105 69.17181152 57.80147461 68.33666992 58.34716797 C66.0625 59.25 66.0625 59.25 63.86938477 58.52661133 C61.65552501 56.96246153 60.37960609 55.27242387 58.8125 53.0625 C47.8900784 38.72825279 30.01373944 30.64629593 12.36962891 28.16845703 C-11.71794662 25.26208624 -34.46109073 31.50149339 -53.734375 46.4140625 C-70.2763781 60.60008334 -79.02306023 81.84560492 -80.9375 103.25 C-82.32030245 126.94977277 -78.0799371 150.72779515 -61.87695312 169.05419922 C-54.89530601 176.67290979 -48.14603271 182.52603868 -38.9375 187.25 C-37.93009766 187.79140625 -37.93009766 187.79140625 -36.90234375 188.34375 C-32.07056845 190.87971159 -27.19383665 192.78412394 -21.9375 194.25 C-21.19757813 194.45753906 -20.45765625 194.66507813 -19.6953125 194.87890625 C1.29542259 199.67391443 25.1199926 196.30992341 43.58203125 185.2109375 C51.832246 179.92568071 58.62388277 173.40792585 64.0625 165.25 C67.51205334 166.52800516 70.44340029 168.01118437 73.48828125 170.0703125 C74.28427734 170.60527344 75.08027344 171.14023438 75.90039062 171.69140625 C76.71701172 172.24699219 77.53363281 172.80257813 78.375 173.375 C79.21095703 173.93832031 80.04691406 174.50164062 80.90820312 175.08203125 C82.96249052 176.46720789 85.01377038 177.85662219 87.0625 179.25 C85.94827351 185.73350632 82.32775338 189.37959101 78.0625 194.25 C77.40121094 195.00796875 76.73992187 195.7659375 76.05859375 196.546875 C59.87343687 213.86837117 35.98299477 223.35090087 12.49243164 224.41113281 C9.09959746 224.44892619 5.70723248 224.48113068 2.31420898 224.49023438 C0.16153754 224.49983701 -1.99013408 224.53087185 -4.14257812 224.5625 C-17.3969811 224.66534964 -30.13195792 222.87891624 -42.5625 218.0625 C-43.35462891 217.76134277 -44.14675781 217.46018555 -44.96289062 217.14990234 C-57.06064027 212.39721498 -67.09875897 205.76091094 -76.9375 197.25 C-77.79730469 196.57324219 -78.65710937 195.89648438 -79.54296875 195.19921875 C-96.54620183 181.35808774 -106.2089309 159.07087592 -110.9375 138.25 C-111.18371094 137.22261719 -111.42992187 136.19523437 -111.68359375 135.13671875 C-117.55870736 105.19389834 -111.49343179 72.73329627 -94.9375 47.25 C-92.75702558 44.09429229 -90.4389547 41.15509853 -87.9375 38.25 C-87.3703125 37.53972656 -86.803125 36.82945313 -86.21875 36.09765625 C-69.43307198 15.86237914 -43.28317938 3.49768443 -17.43701172 0.44848633 C-11.63696411 -0.01209569 -5.81532571 0.00509306 0 0 Z " fill="#FFFFFF" transform="translate(1553.9375,1091.75)"/>
<path d="M0 0 C2.660625 0.020625 5.32125 0.04125 8.0625 0.0625 C8.0625 9.6325 8.0625 19.2025 8.0625 29.0625 C5.38125 29.165625 2.7 29.26875 -0.0625 29.375 C-17.86757851 30.27935935 -34.05898141 34.46806362 -47.9375 46.0625 C-48.65679688 46.65675781 -49.37609375 47.25101563 -50.1171875 47.86328125 C-66.03687332 62.32727596 -70.78927438 85.03133355 -71.83753586 105.56804276 C-72.2232174 115.19215505 -72.18765954 124.83458379 -72.25390625 134.46484375 C-72.27451585 136.99931648 -72.29551325 139.53378609 -72.31687927 142.06825256 C-72.36610918 148.01761364 -72.41147857 153.96699591 -72.45490164 159.91640145 C-72.50463586 166.7002039 -72.55941734 173.48396283 -72.61458123 180.26772296 C-72.72775831 194.19927598 -72.83406625 208.13087141 -72.9375 222.0625 C-82.8375 222.0625 -92.7375 222.0625 -102.9375 222.0625 C-102.9375 149.4625 -102.9375 76.8625 -102.9375 2.0625 C-93.3675 2.0625 -83.7975 2.0625 -73.9375 2.0625 C-73.6075 14.6025 -73.2775 27.1425 -72.9375 40.0625 C-69.4725 34.6175 -69.4725 34.6175 -65.9375 29.0625 C-49.66600649 9.5589975 -25.18857598 -0.27836764 0 0 Z " fill="#FFFFFF" transform="translate(1150.9375,1091.9375)"/>
<path d="M0 0 C6.93 0 13.86 0 21 0 C21 70.62 21 141.24 21 214 C14.07 214 7.14 214 0 214 C0 143.38 0 72.76 0 0 Z " fill="#E38D02" transform="translate(468,1093)"/>
<path d="M0 0 C6.93 0 13.86 0 21 0 C21 70.62 21 141.24 21 214 C14.07 214 7.14 214 0 214 C0 143.38 0 72.76 0 0 Z " fill="#E38C02" transform="translate(351,1093)"/>
<path d="M0 0 C6.93 0 13.86 0 21 0 C21 32.34 21 64.68 21 98 C14.07 98 7.14 98 0 98 C0 65.66 0 33.32 0 0 Z " fill="#E38D02" transform="translate(429,1151)"/>
<path d="M0 0 C6.6 0 13.2 0 20 0 C20 32.34 20 64.68 20 98 C13.4 98 6.8 98 0 98 C0 65.66 0 33.32 0 0 Z " fill="#E38C02" transform="translate(507,1151)"/>
<path d="M0 0 C6.6 0 13.2 0 20 0 C20 32.34 20 64.68 20 98 C13.4 98 6.8 98 0 98 C0 65.66 0 33.32 0 0 Z " fill="#E28C02" transform="translate(313,1151)"/>
<path d="M0 0 C6.93 0 13.86 0 21 0 C21 13.2 21 26.4 21 40 C14.07 40 7.14 40 0 40 C0 26.8 0 13.6 0 0 Z " fill="#E38C02" transform="translate(390,1180)"/>
<path d="M0 0 C6.6 0 13.2 0 20 0 C20 13.2 20 26.4 20 40 C13.4 40 6.8 40 0 40 C0 26.8 0 13.6 0 0 Z " fill="#E28C02" transform="translate(546,1180)"/>
<path d="M0 0 C6.6 0 13.2 0 20 0 C20 13.2 20 26.4 20 40 C13.4 40 6.8 40 0 40 C0 26.8 0 13.6 0 0 Z " fill="#E38C02" transform="translate(274,1180)"/>
</svg>
