<?xml version="1.0" encoding="UTF-8"?>
<svg version="1.1" xmlns="http://www.w3.org/2000/svg" width="2400" height="2400" viewBox="150 930 550 550">
  <path d="M0 0 C0.87624023 0.18191895 1.75248047 0.36383789 2.65527344 0.55126953 C34.30824152 7.2367492 64.42369604 21.21223353 90 41 C90.81339844 41.62132812 91.62679688 42.24265625 92.46484375 42.8828125 C139.37055733 79.48853526 169.9995498 132.84463677 178.10766602 191.78759766 C185.51012922 252.06083739 169.63893822 312.73454006 132.6953125 361.01171875 C120.96563538 375.64250818 107.84326728 389.52666086 93 401 C92.46987305 401.41717285 91.93974609 401.8343457 91.39355469 402.26416016 C80.61409508 410.70692321 69.06230732 417.55047325 57 424 C56.28650391 424.38285156 55.57300781 424.76570313 54.83789062 425.16015625 C35.15607015 435.52706266 12.85946177 442.16166841 -9 446 C-10.57261597 446.27710815 -10.57261597 446.27710815 -12.17700195 446.55981445 C-22.68034444 448.18778553 -33.07618514 448.33904217 -43.6862793 448.31567383 C-46.66557791 448.31252318 -49.64387074 448.33602883 -52.62304688 448.36132812 C-65.34217189 448.40339938 -77.49884859 447.33308292 -90 445 C-91.03133057 444.81187744 -92.06266113 444.62375488 -93.12524414 444.42993164 C-95.49582492 443.9635543 -97.83978396 443.44460979 -100.1875 442.875 C-101.03296387 442.67036133 -101.87842773 442.46572266 -102.74951172 442.25488281 C-140.98855366 432.53038856 -176.23551737 413.27879151 -204.36132812 385.60791016 C-205.88704959 384.11083007 -207.43158396 382.63686739 -208.984375 381.16796875 C-216.08940989 374.31381786 -222.09986354 366.8813631 -228 359 C-228.62406738 358.18305664 -228.62406738 358.18305664 -229.26074219 357.34960938 C-249.71225585 330.52422984 -263.83246015 298.156154 -270 265 C-270.14276367 264.23252441 -270.28552734 263.46504883 -270.43261719 262.67431641 C-280.54857962 205.96809553 -269.11425138 143.42964121 -235.98046875 95.74609375 C-235.32691406 94.83988281 -234.67335937 93.93367188 -234 93 C-233.31550781 92.04222656 -232.63101563 91.08445312 -231.92578125 90.09765625 C-218.29471105 71.47423718 -202.60151257 54.70304388 -184 41 C-183.43990234 40.57912109 -182.87980469 40.15824219 -182.30273438 39.72460938 C-155.11606042 19.31108602 -123.47095293 5.23769744 -90 -1 C-89.28424805 -1.14663086 -88.56849609 -1.29326172 -87.83105469 -1.44433594 C-59.73085668 -7.04990954 -27.91043514 -6.08509487 0 0 Z M-186 60 C-187.24136719 61.07507812 -187.24136719 61.07507812 -188.5078125 62.171875 C-199.02099966 71.46566428 -208.34760583 81.16989897 -216.76708984 92.36572266 C-217.85740595 93.81098523 -218.96823568 95.24072226 -220.08203125 96.66796875 C-244.27886244 128.45403009 -259.83398253 170.75534048 -260.23828125 210.75 C-260.24802979 211.5577034 -260.25777832 212.3654068 -260.26782227 213.19758606 C-260.44339063 231.51935224 -260.09285665 249.04951859 -256 267 C-255.81276367 267.8470752 -255.62552734 268.69415039 -255.43261719 269.56689453 C-246.68157203 308.25135063 -227.16991799 343.0280998 -199.59277344 371.36035156 C-198.1761962 372.81861838 -196.77813085 374.29481656 -195.3828125 375.7734375 C-162.54483656 409.90339938 -112.98677522 431.13210298 -66.14599609 434.828125 C-64.03844551 434.99692086 -61.93627995 435.20081291 -59.83203125 435.40625 C-10.74564988 439.67955927 42.1014359 422.89889631 81 393 C81.89976562 392.31164063 82.79953125 391.62328125 83.7265625 390.9140625 C98.42030193 379.4047248 111.60234035 366.53986502 122.78759766 351.609375 C123.8538908 350.19394922 124.94644858 348.79839033 126.04296875 347.40625 C150.16165433 315.97736488 165.84040587 272.9780551 166.23828125 233.34765625 C166.24802979 232.5385379 166.25777832 231.72941956 166.26782227 230.89578247 C166.44338831 212.53486597 166.07615167 194.99175557 162 177 C161.82339844 176.17951172 161.64679688 175.35902344 161.46484375 174.51367188 C152.81221997 135.06411678 132.47861138 101.12263087 105 72 C104.19820312 71.1440625 103.39640625 70.288125 102.5703125 69.40625 C88.65218214 54.98615428 71.58087051 43.45182873 54 34 C53.39349609 33.6714502 52.78699219 33.34290039 52.16210938 33.00439453 C35.37247615 23.99864624 17.50452337 17.46964905 -1 13 C-2.77503906 12.55527344 -2.77503906 12.55527344 -4.5859375 12.1015625 C-68.14663751 -1.82388371 -137.20099611 17.73793432 -186 60 Z " fill="#E38D02" transform="translate(467,978)"/>
  <path d="M0 0 C6.93 0 13.86 0 21 0 C21 70.62 21 141.24 21 214 C14.07 214 7.14 214 0 214 C0 143.38 0 72.76 0 0 Z " fill="#E38D02" transform="translate(468,1093)"/>
  <path d="M0 0 C6.93 0 13.86 0 21 0 C21 70.62 21 141.24 21 214 C14.07 214 7.14 214 0 214 C0 143.38 0 72.76 0 0 Z " fill="#E38C02" transform="translate(351,1093)"/>
  <path d="M0 0 C6.93 0 13.86 0 21 0 C21 32.34 21 64.68 21 98 C14.07 98 7.14 98 0 98 C0 65.66 0 33.32 0 0 Z " fill="#E38D02" transform="translate(429,1151)"/>
  <path d="M0 0 C6.6 0 13.2 0 20 0 C20 32.34 20 64.68 20 98 C13.4 98 6.8 98 0 98 C0 65.66 0 33.32 0 0 Z " fill="#E38C02" transform="translate(507,1151)"/>
  <path d="M0 0 C6.6 0 13.2 0 20 0 C20 32.34 20 64.68 20 98 C13.4 98 6.8 98 0 98 C0 65.66 0 33.32 0 0 Z " fill="#E28C02" transform="translate(313,1151)"/>
  <path d="M0 0 C6.93 0 13.86 0 21 0 C21 13.2 21 26.4 21 40 C14.07 40 7.14 40 0 40 C0 26.8 0 13.6 0 0 Z " fill="#E38C02" transform="translate(390,1180)"/>
  <path d="M0 0 C6.6 0 13.2 0 20 0 C20 13.2 20 26.4 20 40 C13.4 40 6.8 40 0 40 C0 26.8 0 13.6 0 0 Z " fill="#E28C02" transform="translate(546,1180)"/>
  <path d="M0 0 C6.6 0 13.2 0 20 0 C20 13.2 20 26.4 20 40 C13.4 40 6.8 40 0 40 C0 26.8 0 13.6 0 0 Z " fill="#E38C02" transform="translate(274,1180)"/>
</svg>
